<svg width="46" height="24" viewBox="0 0 46 24" fill="none" xmlns="http://www.w3.org/2000/svg">
<path d="M11.097 6.99917C10.1983 7.9607 9.25672 8.96803 8.35796 9.92957C8.31516 9.97535 8.45551 10.1923 8.5013 10.2351C8.99301 10.3516 9.44191 10.5138 9.97342 10.4959C10.8165 10.5117 11.6108 10.3963 12.411 10.4579C13.3885 10.5136 14.4365 10.0348 15.3891 10.6678C16.3635 10.6349 17.335 10.5135 18.2696 10.615C18.8041 10.6856 19.3874 10.8876 19.9617 10.8239C20.0503 10.8209 20.2305 10.9035 20.2792 11.0349C20.5112 11.3375 20.8257 11.4599 21.2228 11.4022C22.1973 11.3693 23.1717 11.3364 24.1462 11.3035C24.5005 11.2915 24.6837 11.4627 24.9126 11.6767C25.2361 12.0649 25.5417 11.9216 25.7955 11.5582C25.9238 11.4209 26.0493 11.1949 26.315 11.186C28.5296 11.1112 30.7901 11.0793 33.0475 10.9588C34.1713 11.4086 35.3597 11.1468 36.4685 11.1537C37 11.1358 37.3693 11.5667 37.8978 11.4602C38.4264 11.3537 38.9151 11.3815 39.4924 11.4064C39.6268 11.4462 39.8129 11.706 40.0329 11.6542C40.6958 11.5875 41.2482 12.1897 41.9051 11.9458C42.6934 11.6531 43.426 12.3379 44.2203 12.2224C44.706 12.1617 45.1241 12.724 45.142 13.2555C45.163 13.8756 44.7808 14.3763 44.2064 14.44C43.4092 14.4669 42.5691 14.5396 41.7261 14.5237C40.6172 14.5168 39.5114 14.5985 38.4026 14.5916C37.7825 14.6125 37.1932 14.2333 36.4876 14.3458C35.8247 14.4125 35.1588 14.3906 34.4959 14.4573C33.7872 14.4813 33.1671 14.5022 32.4584 14.5261C31.7497 14.55 31.1296 14.5709 30.4209 14.5949C29.2235 14.5909 27.9863 14.7214 26.7372 14.4975C25.5766 14.2706 24.3882 14.5324 23.148 14.5742C21.9078 14.6161 20.579 14.6609 19.3388 14.7028C18.7187 14.7237 18.1264 14.2559 17.4665 14.4112C17.3351 14.46 17.1062 14.246 16.9688 14.1176C16.7887 14.035 16.514 13.7782 16.4284 13.8698C15.0777 14.5805 13.6852 14.0511 12.3196 14.3189C11.8797 14.4224 11.6328 13.6769 11.162 14.1806C10.8196 14.5469 10.3249 14.3418 9.92779 14.3996C9.75062 14.4056 9.62223 14.5429 9.75959 14.6713C10.5868 15.5303 11.4567 16.3434 12.3267 17.1566C13.5241 17.1605 13.9601 18.2544 14.7783 18.8476C15.1874 19.1442 15.7557 18.9033 16.128 19.4228C16.3629 19.814 16.769 20.022 17.0895 20.3216C17.4558 20.664 17.8679 21.0492 18.2342 21.3916C18.7379 21.8623 18.7379 21.8623 18.1815 22.4576C18.0959 22.5491 17.9675 22.6865 17.8819 22.7781C17.5366 23.0558 16.8309 23.1683 16.5103 22.8687C16.0067 22.3979 15.512 22.1929 14.8003 22.1282C14.223 22.1034 13.6397 21.9014 13.0505 21.5222C12.6414 21.2256 12.0153 21.0693 11.4838 21.0873C11.3066 21.0932 11.2608 21.0504 11.2976 20.8275C11.3285 20.4273 11.1394 20.079 10.6994 20.1825C10.1709 20.289 10.0126 19.5405 9.61546 19.5983C9.04115 19.662 8.72064 19.3624 8.53151 19.0141C8.15923 18.4945 7.41672 18.83 6.99865 18.2676C6.71795 17.8337 6.22026 17.5401 5.85396 17.1977C4.9711 17.3162 4.59284 16.6194 4.04339 16.1058C3.72288 15.8063 3.20033 16.09 2.87683 15.7018C2.6449 15.3992 2.3642 14.9653 1.79288 15.1176C1.75008 15.1634 1.6585 15.0778 1.6585 15.0778C1.76597 14.3203 1.1797 14.0297 0.724815 13.6903C0.224142 13.3081 0.160418 12.7338 0.368427 12.3277C0.533642 11.9673 0.656055 11.6528 0.555511 11.3015C0.494775 10.8157 0.623171 10.6784 1.11189 10.7062C1.28906 10.7002 1.45726 10.4285 1.58565 10.2911C1.88524 9.97063 2.23061 9.69292 2.0783 9.1216C2.56702 9.14945 2.91538 8.96032 3.16918 8.59701C3.38018 8.27949 3.68275 8.04756 3.93954 7.77283C4.23913 7.45232 4.53871 7.13181 4.8383 6.81129C5.13788 6.49078 5.43747 6.17027 5.73705 5.84976C6.03664 5.52924 6.33623 5.20873 6.63581 4.88822C6.8926 4.61349 7.14939 4.33877 7.40617 4.06404C7.70576 3.74353 8.00534 3.42302 8.30493 3.1025C8.56172 2.82778 8.37558 2.568 8.4552 2.29926C9.47841 2.39776 9.66549 1.37155 10.3622 0.993289C10.9057 1.32969 11.3496 0.0287613 11.8682 0.942465C11.914 0.985263 12.0881 0.890699 12.2195 0.841923C12.3937 0.747358 12.6535 0.561219 12.7451 0.646816C13.1084 0.900613 13.3433 1.29177 13.7494 1.49978C14.2013 1.75059 13.8679 2.38265 14.277 2.67925C14.3686 2.76484 14.4233 3.0734 14.3775 3.0306C13.6808 3.40886 13.9735 4.19716 13.5027 4.70082C12.6776 5.21644 11.9102 6.1292 11.097 6.99917ZM21.7046 12.5388C21.7016 12.4502 21.6987 12.3617 21.6957 12.2731C21.5643 12.3218 21.4757 12.3248 21.3901 12.4164C21.3473 12.4622 21.3503 12.5508 21.3961 12.5936C21.5304 12.6334 21.5732 12.5876 21.7046 12.5388ZM22.5596 12.9091C22.5567 12.8205 22.5965 12.6861 22.6363 12.5517C22.5477 12.5547 22.4591 12.5577 22.4591 12.5577C22.3735 12.6493 22.3765 12.7379 22.3367 12.8722C22.4283 12.9578 22.5168 12.9548 22.5596 12.9091Z" fill="#44281D"/>
</svg>
